<svg width="339" height="172" viewBox="0 0 339 172" fill="none" xmlns="http://www.w3.org/2000/svg">
<g clip-path="url(#clip0_34_993)">
<path d="M1.10006 164C1.90006 166.3 3.00006 168.4 4.40006 170.4H338.3C338.5 167.4 337.8 164.3 336.3 161.2C332.4 153.5 325 147 322.4 139C319 128.3 324.6 115.8 315.9 106.9C308.2 99.0001 293 97.9001 281.6 93C260.9 84.2001 254.8 64.2001 237.7 52.0001C223.8 42.0001 202.4 38.0001 183.7 41.7001C166.1 45.2001 151.7 54.8 134.1 58.5C121.7 61.1 108.5 60.5 95.6001 61.6C82.8001 62.8 69.2001 66.3001 62.5001 74.4001C54.5001 84.1001 58.9001 97.2001 52.3001 107.4C45.3001 118.2 28.4001 123.1 16.4001 131.2C4.30006 139.6 -2.89994 152.3 1.10006 164Z" fill="#EDF4FC"/>
<path d="M305 163.4C304.4 165.9 303.5 168.2 302.3 170.5H32.4998C32.2998 167.2 32.8998 163.7 34.0998 160.4C37.1998 152 43.1998 144.7 45.2998 136C48.0998 124.2 43.4998 110.5 50.4998 100.6C56.6998 91.9 68.9998 90.7 78.1998 85.3C94.8998 75.6 99.8998 53.6 113.7 40.1C125 29.1 142.2 24.6 157.4 28.8C171.6 32.7 183.3 43.3 197.5 47.3C207.6 50.1 218.2 49.5 228.6 50.8C239 52 250 55.9 255.4 64.8C261.9 75.5 258.3 89.9 263.7 101.2C269.3 113.1 283 118.5 292.7 127.4C302.5 136.5 308.2 150.5 305 163.4Z" fill="#D9E2EF"/>
<path d="M53.8003 135.9H30.3003V138.4H53.8003V135.9Z" fill="#B8C4D1"/>
<path d="M53.8003 140.5H30.3003V143H53.8003V140.5Z" fill="#B8C4D1"/>
<path d="M53.8003 145.1H30.3003V147.6H53.8003V145.1Z" fill="#B8C4D1"/>
<path d="M53.8003 149.7H30.3003V152.2H53.8003V149.7Z" fill="#B8C4D1"/>
<path d="M53.8003 154.2H30.3003V156.7H53.8003V154.2Z" fill="#B8C4D1"/>
<path d="M53.8003 158.8H30.3003V161.3H53.8003V158.8Z" fill="#B8C4D1"/>
<path d="M53.8003 163.4H30.3003V165.9H53.8003V163.4Z" fill="#B8C4D1"/>
<path d="M53.8003 167.9H30.3003V170.4H53.8003V167.9Z" fill="#B8C4D1"/>
<path d="M61.1 121.1H51V170.4H61.1V121.1Z" fill="#B8C4D1"/>
<path d="M61.1001 140.5H64.4001V133.9L73.8001 130.1V170.4H61.1001V140.5Z" fill="#B8C4D1"/>
<path d="M140.4 121.1H130.3V170.4H140.4V121.1Z" fill="#B8C4D1"/>
<path d="M140.4 140.5H143.7V133.9L153.1 130.1V170.4H140.4V140.5Z" fill="#B8C4D1"/>
<path d="M34.4001 147.6H24.1001V170.4H34.4001V147.6Z" fill="#B8C4D1"/>
<path d="M172.3 147.6H162V170.4H172.3V147.6Z" fill="#B8C4D1"/>
<path d="M88.3003 163.4H73.8003V170.5H88.3003V163.4Z" fill="#B8C4D1"/>
<path d="M98.1003 115H86.8003V170.5H98.1003V115Z" fill="#B8C4D1"/>
<path d="M239.9 138.2H219.5V170.4H239.9V138.2Z" fill="#B8C4D1"/>
<path d="M246.5 114.8H237.1V170.5H246.5V114.8Z" fill="#B8C4D1"/>
<path d="M259.4 115H252.3V170.5H259.4V115Z" fill="#B8C4D1"/>
<path d="M277.5 154.3H241V170.4H277.5V154.3Z" fill="#B8C4D1"/>
<path d="M281.3 135.9H269.6V170.4H281.3V135.9Z" fill="#B8C4D1"/>
<path d="M280.1 136.8H276.3V138.9H280.1V136.8Z" fill="#D9E2EF"/>
<path d="M280.1 140.1H276.3V142.2H280.1V140.1Z" fill="#D9E2EF"/>
<path d="M280.1 143.4H276.3V145.5H280.1V143.4Z" fill="#D9E2EF"/>
<path d="M280.1 146.7H276.3V148.8H280.1V146.7Z" fill="#D9E2EF"/>
<path d="M280.1 150H276.3V152.1H280.1V150Z" fill="#D9E2EF"/>
<path d="M280.1 153.3H276.3V155.4H280.1V153.3Z" fill="#D9E2EF"/>
<path d="M280.1 156.6H276.3V158.7H280.1V156.6Z" fill="#D9E2EF"/>
<path d="M280.1 159.9H276.3V162H280.1V159.9Z" fill="#D9E2EF"/>
<path d="M280.1 163.2H276.3V165.3H280.1V163.2Z" fill="#D9E2EF"/>
<path d="M280.1 166.5H276.3V168.6H280.1V166.5Z" fill="#D9E2EF"/>
<path d="M266.8 151.7H263.8V155.1H266.8V151.7Z" fill="#B8C4D1"/>
<path d="M233.9 122.6H231.6V140H233.9V122.6Z" fill="#B8C4D1"/>
<path d="M245.2 113.3H238.3V115.8H245.2V113.3Z" fill="#B8C4D1"/>
<path d="M211.6 126.5C211.1 126 165.5 76.9 165.5 46.4C165.5 20.8 186.3 0 211.9 0C237.5 0 258.3 20.8 258.3 46.4C258.3 77.5 212.7 126 212.2 126.5L211.9 126.8L211.6 126.5ZM211.9 17.3C195.9 17.3 182.8 30.4 182.8 46.4C182.8 62.4 195.9 75.5 211.9 75.5C227.9 75.5 241 62.4 241 46.4C241 30.3 227.9 17.3 211.9 17.3Z" fill="#FF6107"/>
<path d="M211.9 0.399902C186.5 0.399902 165.9 20.9999 165.9 46.3999C165.9 77.1999 211.9 126.3 211.9 126.3C211.9 126.3 257.9 77.7999 257.9 46.3999C257.9 20.9999 237.3 0.399902 211.9 0.399902ZM211.9 75.7999C195.6 75.7999 182.4 62.5999 182.4 46.2999C182.4 29.9999 195.6 16.7999 211.9 16.7999C228.2 16.7999 241.4 29.9999 241.4 46.2999C241.4 62.5999 228.2 75.7999 211.9 75.7999Z" fill="#FF6107"/>
<path d="M232.9 170.7C232.9 171.2 201.1 171.6 162 171.6C122.9 171.6 91 171.1 91 170.7C91 170.2 122.8 169.8 161.9 169.8C201 169.8 232.9 170.2 232.9 170.7Z" fill="#B8C4D1"/>
<path d="M211.2 150.7H110.1V161.5H211.2V150.7Z" fill="url(#paint0_linear_34_993)"/>
<path d="M112.8 170.7H101.4C99.6001 170.7 98.1001 169.2 98.1001 167.4V149H116.1V167.3C116.1 169.2 114.7 170.7 112.8 170.7Z" fill="url(#paint1_linear_34_993)"/>
<path d="M211.1 170.7H222.5C224.3 170.7 225.8 169.2 225.8 167.4V149H207.8V167.3C207.8 169.2 209.3 170.7 211.1 170.7Z" fill="url(#paint2_linear_34_993)"/>
<path d="M112.9 107.5L102.2 107C100.1 106.9 98.5 105.2 98.5 103.1C98.5 100.9 100.2 99.2002 102.4 99.2002H105.9C107.9 99.2002 109.6 100.4 110.4 102.1L111.3 104.1H116.3L112.9 107.5Z" fill="url(#paint3_linear_34_993)"/>
<path d="M211 107.5L221.7 107C223.8 106.9 225.4 105.2 225.4 103.1C225.4 100.9 223.7 99.2002 221.5 99.2002H218C216 99.2002 214.3 100.4 213.5 102.1L212.6 104.1H207.6L211 107.5Z" fill="url(#paint4_linear_34_993)"/>
<path d="M227.7 127.1V148C227.7 149.3 227.4 150.6 226.8 151.8L225.6 154.3C224.1 157.4 221 159.3 217.6 159.3H201.5C200.4 159.3 199.3 159.1 198.3 158.7L195.8 157.7C193.4 156.7 190.7 156.3 188.1 156.3H135.7C133.1 156.3 130.5 156.8 128 157.7L125.5 158.7C124.5 159.1 123.4 159.3 122.3 159.3H106.2C102.8 159.3 99.7001 157.3 98.2001 154.3L97.0001 151.8C96.4001 150.6 96.1001 149.3 96.1001 148V127.1C96.1001 124.8 97.0001 122.6 98.5001 121L101.8 117.5L102 117.3L112.8 105.9C112.8 105.9 116.5 95.2001 124.5 83.6001C124.5 83.6001 129.8 81.2001 160.7 81.1001H162.9C193.8 81.2001 199.1 83.6001 199.1 83.6001C207.1 95.2001 210.8 105.9 210.8 105.9L222.5 118.2L225.1 120.9C226.8 122.6 227.7 124.8 227.7 127.1Z" fill="url(#paint5_linear_34_993)"/>
<path d="M227.7 127.1V148C227.7 149.3 227.4 150.6 226.8 151.8L225.6 154.3C224.1 157.4 221 159.3 217.6 159.3H201.5C200.4 159.3 199.3 159.1 198.3 158.7L195.8 157.7C193.4 156.7 190.7 156.3 188.1 156.3H135.7C133.1 156.3 130.5 156.8 128 157.7L125.5 158.7C124.5 159.1 123.4 159.3 122.3 159.3H106.2C102.8 159.3 99.7001 157.3 98.2001 154.3L97.0001 151.8C96.4001 150.6 96.1001 149.3 96.1001 148V127.1C96.1001 124.8 97.0001 122.6 98.5001 121L101.8 117.5C100.4 119.9 122.7 128.3 132.9 129C143.4 129.7 180.6 129.4 190.8 129C201 128.6 220 122.3 222.6 118.3L225.2 121C226.8 122.6 227.7 124.8 227.7 127.1Z" fill="url(#paint6_linear_34_993)"/>
<path d="M208 105.8C204.6 105.6 199 105.4 192.9 105.3C190.7 105.2 188.4 105.2 186.1 105.1C178.7 104.9 171.2 104.8 166.5 104.8C164.5 104.8 162.9 104.8 162 104.8C156.7 104.8 126.4 105.3 116 105.9C117.6 100.3 123 91.3001 125.9 86.3001C127.9 85.6001 130.7 85.2001 133.9 84.8001C137.1 84.5001 140.7 84.2001 144.5 84.1001C147.5 84.0001 150.6 83.9001 153.7 83.9001C156.5 83.9001 159.3 83.9001 162 83.9001C163.4 83.9001 164.8 83.9001 166.3 83.9001C167.3 83.9001 168.4 83.9001 169.4 83.9001C177.9 84.0001 186.4 84.2001 192.5 85.1001C194.8 85.4001 196.7 85.8001 198.2 86.3001C199.2 88.0001 200.5 90.2001 201.8 92.5001C202.9 94.4001 204 96.4001 205 98.4001C205.8 99.9001 206.5 101.4 207 102.8C207.3 103.8 207.7 104.8 208 105.8Z" fill="url(#paint7_linear_34_993)"/>
<path d="M190.9 129C190.9 129 173.1 130 162 130C149.3 130 133.1 129 133.1 129C133.1 129 123.5 132.6 123.5 136.7C123.5 139.9 129.1 148.4 131.6 152.2C132.4 153.4 133.7 154 135.1 154H162H188.9C190.3 154 191.6 153.3 192.4 152.2C195 148.4 200.5 139.9 200.5 136.7C200.5 132.6 190.9 129 190.9 129Z" fill="url(#paint8_linear_34_993)"/>
<path d="M109.7 151.1C109.7 153.3 107.9 155.1 105.7 155.1C103.5 155.1 101.7 153.3 101.7 151.1C101.7 148.9 103.5 147.1 105.7 147.1C107.9 147.1 109.7 148.9 109.7 151.1Z" fill="url(#paint9_linear_34_993)"/>
<path d="M105.7 153.7C107.136 153.7 108.3 152.536 108.3 151.1C108.3 149.664 107.136 148.5 105.7 148.5C104.264 148.5 103.1 149.664 103.1 151.1C103.1 152.536 104.264 153.7 105.7 153.7Z" fill="url(#paint10_linear_34_993)"/>
<path d="M214.2 151.1C214.2 153.3 216 155.1 218.2 155.1C220.4 155.1 222.2 153.3 222.2 151.1C222.2 148.9 220.4 147.1 218.2 147.1C216 147.1 214.2 148.9 214.2 151.1Z" fill="url(#paint11_linear_34_993)"/>
<path d="M218.201 153.7C219.637 153.7 220.801 152.536 220.801 151.1C220.801 149.664 219.637 148.5 218.201 148.5C216.765 148.5 215.601 149.664 215.601 151.1C215.601 152.536 216.765 153.7 218.201 153.7Z" fill="url(#paint12_linear_34_993)"/>
<path d="M103.8 119.9C101.9 119.7 99.5999 121.1 98.5999 123.8C97.9999 125.4 97.9999 127.5 98.0999 129.6C103.1 134.6 114.8 134.7 117.8 134.4C120.9 134.1 127.8 130.2 128.5 128.5C129.4 126.9 106.8 120.3 103.8 119.9Z" fill="url(#paint13_linear_34_993)"/>
<path d="M106.3 130.8C108.509 130.8 110.3 129.009 110.3 126.8C110.3 124.591 108.509 122.8 106.3 122.8C104.091 122.8 102.3 124.591 102.3 126.8C102.3 129.009 104.091 130.8 106.3 130.8Z" fill="url(#paint14_radial_34_993)"/>
<path d="M118.7 129C118.7 130.8 117.2 132.3 115.4 132.3C113.6 132.3 112.1 130.8 112.1 129C112.1 127.2 113.6 125.7 115.4 125.7C117.2 125.7 118.7 127.2 118.7 129Z" fill="url(#paint15_radial_34_993)"/>
<path d="M220.1 119.9C222 119.7 224.3 121.1 225.3 123.8C225.9 125.4 225.9 127.5 225.8 129.6C220.8 134.6 209.1 134.7 206.1 134.4C203 134.1 196.1 130.2 195.4 128.5C194.6 126.9 217.1 120.3 220.1 119.9Z" fill="url(#paint16_linear_34_993)"/>
<path d="M217.6 130.8C219.809 130.8 221.6 129.009 221.6 126.8C221.6 124.591 219.809 122.8 217.6 122.8C215.39 122.8 213.6 124.591 213.6 126.8C213.6 129.009 215.39 130.8 217.6 130.8Z" fill="url(#paint17_radial_34_993)"/>
<path d="M205.3 129C205.3 130.8 206.8 132.3 208.6 132.3C210.4 132.3 211.9 130.8 211.9 129C211.9 127.2 210.4 125.7 208.6 125.7C206.8 125.7 205.3 127.2 205.3 129Z" fill="url(#paint18_radial_34_993)"/>
<path d="M177.6 151.1H146.9C146.7 151.1 146.5 150.9 146.5 150.7V143.7C146.5 143.5 146.7 143.3 146.9 143.3H177.6C177.8 143.3 178 143.5 178 143.7V150.7C178.1 150.9 177.9 151.1 177.6 151.1Z" fill="url(#paint19_linear_34_993)"/>
<path d="M164.8 137.6H159C157.7 137.6 156.7 136.6 156.7 135.3C156.7 134 157.7 133 159 133H164.8C166.1 133 167.1 134 167.1 135.3C167.1 136.6 166.1 137.6 164.8 137.6Z" fill="url(#paint20_linear_34_993)"/>
<path d="M205.3 102.8C200.8 103.4 193 104.1 184.3 103.3C172.2 102.2 159.7 92.1 155.4 85C158 85 160.6 85 163.2 85C164.5 85 165.9 85 167.2 85C168.2 85 169.1 85 170.1 85C178.1 85.1 186 85.3 191.7 86.1C193.8 86.4 195.6 86.8 197 87.2C197.9 88.8 199.1 90.8 200.4 93.1C201.4 94.9 202.4 96.8 203.4 98.6C204.1 100.1 204.7 101.5 205.3 102.8Z" fill="url(#paint21_linear_34_993)"/>
<path d="M112.1 108.5C107.5 113.1 103.6 116 105.1 117.5C106.6 119 128.7 127.9 140.3 127.9C151.9 127.9 183.1 129.9 192 127.2C200.9 124.4 218 120 219.4 118.6C220.8 117.2 211.3 108.5 211.3 108.5H112.1Z" fill="url(#paint22_linear_34_993)"/>
<path d="M220 106H221.9C223.6 106 225 104.6 225 102.9C225 101.2 223.6 99.8 221.9 99.8H220C218.3 99.8 216.9 101.2 216.9 102.9C216.9 104.6 218.3 106 220 106Z" fill="url(#paint23_linear_34_993)"/>
<path d="M102.2 106H104.1C105.8 106 107.2 104.6 107.2 102.9C107.2 101.2 105.8 99.8 104.1 99.8H102.2C100.5 99.8 99.1001 101.2 99.1001 102.9C99.1001 104.6 100.4 106 102.2 106Z" fill="url(#paint24_linear_34_993)"/>
<path d="M110.4 77.0001C110.1 77.0001 109.9 77.0002 109.6 76.9002C108.3 76.5002 107.6 75.0001 108 73.7001C109.3 69.8001 112.1 66.6002 115.8 64.8002C119.5 63.0002 123.7 62.7001 127.6 64.1001C128.9 64.5001 129.6 66.0002 129.2 67.3002C128.7 68.6002 127.3 69.3002 126 68.8002C123.4 67.9002 120.6 68.1002 118.1 69.3002C115.6 70.5002 113.8 72.6002 112.9 75.3002C112.4 76.3002 111.4 77.0001 110.4 77.0001Z" fill="#B8C4D1"/>
<path d="M100 73.5002C99.7001 73.5002 99.5001 73.5002 99.2001 73.4002C97.9001 73.0002 97.2001 71.5002 97.6001 70.2002C99.8001 63.5002 104.6 58.1002 110.9 55.0002C117.2 51.9002 124.4 51.4002 131 53.7002C132.3 54.2002 133 55.6002 132.5 56.9002C132 58.2002 130.6 58.9002 129.3 58.4002C123.9 56.5002 118.1 56.9002 113 59.4002C107.9 61.9002 104.1 66.3002 102.2 71.7002C102 72.9002 101.1 73.5002 100 73.5002Z" fill="#B8C4D1"/>
<path d="M90.1002 70.2001C89.8002 70.2001 89.6002 70.2001 89.3002 70.1001C88.0002 69.7001 87.3002 68.2001 87.7002 66.9001C90.8002 57.5001 97.4002 50.0001 106.3 45.7001C115.2 41.4001 125.2 40.7001 134.5 44.0001C135.8 44.5001 136.5 45.9001 136 47.2001C135.5 48.5001 134.1 49.2001 132.8 48.7001C124.8 45.9001 116.1 46.5001 108.5 50.2001C100.9 54.0001 95.2002 60.5001 92.5002 68.6001C92.1002 69.5001 91.1002 70.2001 90.1002 70.2001Z" fill="#B8C4D1"/>
</g>
<defs>
<linearGradient id="paint0_linear_34_993" x1="160.667" y1="161.959" x2="160.667" y2="155.814" gradientUnits="userSpaceOnUse">
<stop stop-color="#2C3E63"/>
<stop offset="1" stop-color="#13192E"/>
</linearGradient>
<linearGradient id="paint1_linear_34_993" x1="107.124" y1="170.28" x2="107.124" y2="156.4" gradientUnits="userSpaceOnUse">
<stop stop-color="#2C3E63"/>
<stop offset="1" stop-color="#13192E"/>
</linearGradient>
<linearGradient id="paint2_linear_34_993" x1="216.814" y1="170.28" x2="216.814" y2="156.4" gradientUnits="userSpaceOnUse">
<stop stop-color="#2C3E63"/>
<stop offset="1" stop-color="#13192E"/>
</linearGradient>
<linearGradient id="paint3_linear_34_993" x1="107.531" y1="99.0713" x2="107.328" y2="106.873" gradientUnits="userSpaceOnUse">
<stop stop-color="#1966FF"/>
<stop offset="1" stop-color="#1D41CF"/>
</linearGradient>
<linearGradient id="paint4_linear_34_993" x1="216.406" y1="99.0713" x2="216.61" y2="106.873" gradientUnits="userSpaceOnUse">
<stop stop-color="#1966FF"/>
<stop offset="1" stop-color="#1D41CF"/>
</linearGradient>
<linearGradient id="paint5_linear_34_993" x1="161.972" y1="80.8844" x2="161.972" y2="128.157" gradientUnits="userSpaceOnUse">
<stop stop-color="#1966FF"/>
<stop offset="0.5203" stop-color="#1D41CF"/>
<stop offset="1" stop-color="#1966FF"/>
</linearGradient>
<linearGradient id="paint6_linear_34_993" x1="96.9553" y1="138.429" x2="224.962" y2="138.429" gradientUnits="userSpaceOnUse">
<stop stop-color="#1D41CF"/>
<stop offset="0.0709905" stop-color="#1C4ADB"/>
<stop offset="0.2198" stop-color="#1A5AEF"/>
<stop offset="0.3695" stop-color="#1963FB"/>
<stop offset="0.5203" stop-color="#1966FF"/>
<stop offset="0.6563" stop-color="#1963FB"/>
<stop offset="0.7982" stop-color="#1A59EE"/>
<stop offset="0.9424" stop-color="#1C49DA"/>
<stop offset="1" stop-color="#1D41CF"/>
</linearGradient>
<linearGradient id="paint7_linear_34_993" x1="191.606" y1="80.9648" x2="129.958" y2="118.422" gradientUnits="userSpaceOnUse">
<stop stop-color="#2C3E63"/>
<stop offset="1" stop-color="#13192E"/>
</linearGradient>
<linearGradient id="paint8_linear_34_993" x1="162.14" y1="153.853" x2="161.923" y2="132.147" gradientUnits="userSpaceOnUse">
<stop stop-color="#2C3E63"/>
<stop offset="1" stop-color="#13192E"/>
</linearGradient>
<linearGradient id="paint9_linear_34_993" x1="105.748" y1="154.989" x2="105.68" y2="148.192" gradientUnits="userSpaceOnUse">
<stop stop-color="#2C3E63"/>
<stop offset="1" stop-color="#13192E"/>
</linearGradient>
<linearGradient id="paint10_linear_34_993" x1="105.734" y1="153.637" x2="105.69" y2="149.218" gradientUnits="userSpaceOnUse">
<stop stop-color="#EBEFF7"/>
<stop offset="1" stop-color="#B3B6C2"/>
</linearGradient>
<linearGradient id="paint11_linear_34_993" x1="218.19" y1="154.989" x2="218.258" y2="148.192" gradientUnits="userSpaceOnUse">
<stop stop-color="#2C3E63"/>
<stop offset="1" stop-color="#13192E"/>
</linearGradient>
<linearGradient id="paint12_linear_34_993" x1="218.204" y1="153.637" x2="218.248" y2="149.218" gradientUnits="userSpaceOnUse">
<stop stop-color="#EBEFF7"/>
<stop offset="1" stop-color="#B3B6C2"/>
</linearGradient>
<linearGradient id="paint13_linear_34_993" x1="113.425" y1="134.303" x2="113.3" y2="121.785" gradientUnits="userSpaceOnUse">
<stop stop-color="#EBEFF7"/>
<stop offset="1" stop-color="#B3B6C2"/>
</linearGradient>
<radialGradient id="paint14_radial_34_993" cx="0" cy="0" r="1" gradientUnits="userSpaceOnUse" gradientTransform="translate(106.334 126.807) scale(3.9612)">
<stop stop-color="#EBEFF7"/>
<stop offset="1" stop-color="#B3B6C2"/>
</radialGradient>
<radialGradient id="paint15_radial_34_993" cx="0" cy="0" r="1" gradientUnits="userSpaceOnUse" gradientTransform="translate(115.358 128.986) scale(3.3062 3.3062)">
<stop stop-color="#EBEFF7"/>
<stop offset="1" stop-color="#B3B6C2"/>
</radialGradient>
<linearGradient id="paint16_linear_34_993" x1="210.512" y1="134.303" x2="210.637" y2="121.785" gradientUnits="userSpaceOnUse">
<stop stop-color="#EBEFF7"/>
<stop offset="1" stop-color="#B3B6C2"/>
</linearGradient>
<radialGradient id="paint17_radial_34_993" cx="0" cy="0" r="1" gradientUnits="userSpaceOnUse" gradientTransform="translate(217.604 126.807) rotate(180) scale(3.9612)">
<stop stop-color="#EBEFF7"/>
<stop offset="1" stop-color="#B3B6C2"/>
</radialGradient>
<radialGradient id="paint18_radial_34_993" cx="0" cy="0" r="1" gradientUnits="userSpaceOnUse" gradientTransform="translate(208.579 128.986) rotate(180) scale(3.3062 3.3062)">
<stop stop-color="#EBEFF7"/>
<stop offset="1" stop-color="#B3B6C2"/>
</radialGradient>
<linearGradient id="paint19_linear_34_993" x1="180.353" y1="136.754" x2="132.794" y2="164.179" gradientUnits="userSpaceOnUse">
<stop stop-color="#EBEFF7"/>
<stop offset="1" stop-color="#B3B6C2"/>
</linearGradient>
<linearGradient id="paint20_linear_34_993" x1="161.973" y1="133.013" x2="161.973" y2="135.769" gradientUnits="userSpaceOnUse">
<stop stop-color="#EBEFF7"/>
<stop offset="1" stop-color="#B3B6C2"/>
</linearGradient>
<linearGradient id="paint21_linear_34_993" x1="180.23" y1="103.236" x2="180.385" y2="87.6455" gradientUnits="userSpaceOnUse">
<stop stop-color="#2C3E63"/>
<stop offset="1" stop-color="#13192E"/>
</linearGradient>
<linearGradient id="paint22_linear_34_993" x1="162" y1="128.201" x2="162.174" y2="110.778" gradientUnits="userSpaceOnUse">
<stop stop-color="#2C3E63"/>
<stop offset="1"/>
</linearGradient>
<linearGradient id="paint23_linear_34_993" x1="220.913" y1="99.9197" x2="220.913" y2="105.169" gradientUnits="userSpaceOnUse">
<stop stop-color="#2C3E63"/>
<stop offset="1"/>
</linearGradient>
<linearGradient id="paint24_linear_34_993" x1="103.1" y1="99.9197" x2="103.1" y2="105.169" gradientUnits="userSpaceOnUse">
<stop stop-color="#2C3E63"/>
<stop offset="1"/>
</linearGradient>
<clipPath id="clip0_34_993">
<rect width="338.4" height="171.5" fill="white"/>
</clipPath>
</defs>
</svg>
