<svg width="346" height="346" viewBox="0 0 346 346" fill="none" xmlns="http://www.w3.org/2000/svg">
<circle opacity="0.1" cx="173" cy="173" r="172.5" stroke="#B71C25"/>
<circle opacity="0.2" cx="173" cy="173" r="128.5" stroke="#B71C25"/>
<circle cx="173" cy="173" r="92" fill="#B71C25"/>
<path d="M110.625 130.632C110.625 130.632 109.065 98.7752 108.909 89.9173C108.597 81.0594 109.689 65.3639 118.739 56.1952C127.789 47.1819 138.556 32.4188 170.855 29C170.855 29 200.657 31.1756 220.474 51.067C240.29 70.9583 233.425 102.971 233.425 112.14C233.425 121.308 231.864 175.543 231.864 180.361C231.864 185.178 232.8 229.778 233.425 234.44C233.893 238.947 235.765 243.765 235.765 262.257C235.765 280.75 230.772 291.628 225.935 296.912C221.098 302.195 183.65 316.337 171.479 316.959C159.308 317.58 122.328 304.682 116.087 294.736C109.845 284.635 108.285 275.156 108.909 249.981C109.377 224.806 110.625 130.632 110.625 130.632Z" fill="url(#paint0_linear_211_31)"/>
<path d="M170.854 316.959C171.011 316.959 171.167 316.959 171.323 316.959C183.493 316.337 220.942 302.195 225.779 296.912C230.616 291.628 235.609 280.905 235.609 262.257C235.609 243.609 233.892 238.947 233.268 234.44C232.8 229.934 231.708 185.178 231.708 180.361C231.708 175.543 233.268 121.308 233.268 112.14C233.268 102.971 240.29 71.1137 220.473 51.067C200.657 31.0202 170.854 29 170.854 29V94.2685V316.959Z" fill="url(#paint1_linear_211_31)"/>
<path d="M204.402 262.568L212.204 150.368L206.274 154.875L204.402 262.568Z" fill="#C64B4B"/>
<path d="M139.023 262.568L131.222 150.368L137.151 154.875L139.023 262.568Z" fill="#C64B4B"/>
<path d="M130.597 297.533L168.826 311.986L210.643 297.533L204.246 261.636H138.711L130.597 297.533Z" fill="url(#paint2_linear_211_31)"/>
<path d="M186.614 298.466L203.309 262.568H204.402L209.551 291.628L186.614 298.466Z" fill="url(#paint3_linear_211_31)"/>
<path d="M186.614 298.466L203.309 262.568H204.402L209.551 291.628L186.614 298.466Z" fill="url(#paint4_linear_211_31)"/>
<path d="M156.187 298.466L139.491 262.568H138.399L133.094 291.628L156.187 298.466Z" fill="url(#paint5_linear_211_31)"/>
<path d="M156.187 298.466L139.491 262.568H138.399L133.094 291.628L156.187 298.466Z" fill="url(#paint6_linear_211_31)"/>
<path d="M138.711 261.636L156.187 298.466L146.045 269.561L138.711 261.636Z" fill="url(#paint7_linear_211_31)"/>
<path d="M204.09 261.636L186.614 298.466L196.756 269.561L204.09 261.636Z" fill="url(#paint8_linear_211_31)"/>
<path d="M141.051 52.7764C141.051 52.7764 133.874 79.8162 132.47 81.681C131.221 83.5458 121.703 89.2957 121.703 89.2957C121.703 89.2957 125.292 58.837 141.051 52.7764Z" fill="url(#paint9_linear_211_31)"/>
<path d="M139.647 57.7493C139.647 57.7493 134.029 78.573 133.093 79.9717C132.157 81.3703 124.823 85.8769 124.823 85.8769C124.823 85.8769 127.476 62.5667 139.647 57.7493Z" fill="black"/>
<path d="M201.593 52.7764C201.593 52.7764 208.771 79.8162 210.175 81.681C211.423 83.5458 220.942 89.2957 220.942 89.2957C220.942 89.2957 217.353 58.837 201.593 52.7764Z" fill="url(#paint10_linear_211_31)"/>
<path d="M202.998 57.7493C202.998 57.7493 208.615 78.573 209.551 79.9717C210.487 81.3703 217.821 85.8769 217.821 85.8769C217.821 85.8769 215.168 62.5667 202.998 57.7493Z" fill="black"/>
<path d="M119.363 118.977C119.363 118.977 128.725 149.902 128.413 162.645C128.101 175.388 123.888 224.184 123.888 224.184C123.888 224.184 116.866 187.509 117.022 162.334C117.49 137.315 119.363 118.977 119.363 118.977Z" fill="black"/>
<path d="M224.53 118.977C224.53 118.977 215.168 149.902 215.48 162.645C215.792 175.388 220.005 224.184 220.005 224.184C220.005 224.184 227.027 187.509 226.871 162.334C226.559 137.315 224.53 118.977 224.53 118.977Z" fill="black"/>
<path d="M119.363 110.741L133.094 156.429C133.094 156.429 170.231 140.578 210.487 156.429L223.282 108.876C223.282 108.876 217.041 85.877 172.103 85.877C127.165 85.877 119.363 110.741 119.363 110.741Z" fill="black"/>
<path d="M136.059 210.042C136.059 210.042 180.217 216.88 206.275 210.042L204.09 261.791C204.09 261.791 205.182 273.912 169.919 273.912C134.655 273.912 137.619 257.906 137.619 257.906L136.059 210.042Z" fill="black"/>
<path d="M130.597 297.533C130.597 297.533 166.641 311.986 168.67 311.986C170.698 311.986 210.643 297.533 210.643 297.533L168.982 315.405L130.597 297.533Z" fill="url(#paint11_linear_211_31)"/>
<mask id="mask0_211_31" style="mask-type:luminance" maskUnits="userSpaceOnUse" x="108" y="29" width="128" height="288">
<path d="M110.627 130.632C110.627 130.632 109.066 98.7752 108.91 89.9173C108.598 81.0594 109.691 65.3639 118.741 56.1952C127.791 47.1819 138.557 32.4188 170.856 29C170.856 29 200.659 31.1756 220.475 51.067C240.292 70.9583 233.426 102.971 233.426 112.14C233.426 121.308 231.866 175.543 231.866 180.361C231.866 185.178 232.802 229.778 233.426 234.44C233.894 238.947 235.767 243.765 235.767 262.257C235.767 280.75 230.773 291.628 225.936 296.912C221.099 302.195 183.651 316.337 171.48 316.959C159.31 317.58 122.329 304.682 116.088 294.736C109.847 284.635 108.286 275.156 108.91 249.981C109.379 224.806 110.627 130.632 110.627 130.632Z" fill="white"/>
</mask>
<g mask="url(#mask0_211_31)">
<path d="M130.599 297.533C130.599 297.533 135.904 240.346 109.222 217.812L102.357 286.811L110.939 304.526L124.826 308.411C124.982 308.411 129.975 300.175 130.599 297.533Z" fill="url(#paint12_radial_211_31)"/>
</g>
<mask id="mask1_211_31" style="mask-type:luminance" maskUnits="userSpaceOnUse" x="108" y="29" width="128" height="288">
<path d="M110.627 130.632C110.627 130.632 109.066 98.7752 108.91 89.9173C108.598 81.0594 109.691 65.3639 118.741 56.1952C127.791 47.1819 138.557 32.4188 170.856 29C170.856 29 200.659 31.1756 220.475 51.067C240.292 70.9583 233.426 102.971 233.426 112.14C233.426 121.308 231.866 175.543 231.866 180.361C231.866 185.178 232.802 229.778 233.426 234.44C233.894 238.947 235.767 243.765 235.767 262.257C235.767 280.75 230.773 291.628 225.936 296.912C221.099 302.195 183.651 316.337 171.48 316.959C159.31 317.58 122.329 304.682 116.088 294.736C109.847 284.635 108.286 275.156 108.91 249.981C109.379 224.806 110.627 130.632 110.627 130.632Z" fill="white"/>
</mask>
<g mask="url(#mask1_211_31)">
<path d="M109.066 236.927C109.066 236.927 113.435 283.237 122.797 300.797H112.499L103.917 284.791L105.945 275.311L102.98 268.784L109.066 236.927Z" fill="url(#paint13_radial_211_31)"/>
</g>
<mask id="mask2_211_31" style="mask-type:luminance" maskUnits="userSpaceOnUse" x="108" y="29" width="128" height="288">
<path d="M110.627 130.632C110.627 130.632 109.066 98.7752 108.91 89.9173C108.598 81.0594 109.691 65.3639 118.741 56.1952C127.791 47.1819 138.557 32.4188 170.856 29C170.856 29 200.659 31.1756 220.475 51.067C240.292 70.9583 233.426 102.971 233.426 112.14C233.426 121.308 231.866 175.543 231.866 180.361C231.866 185.178 232.802 229.778 233.426 234.44C233.894 238.947 235.767 243.765 235.767 262.257C235.767 280.75 230.773 291.628 225.936 296.912C221.099 302.195 183.651 316.337 171.48 316.959C159.31 317.58 122.329 304.682 116.088 294.736C109.847 284.635 108.286 275.156 108.91 249.981C109.379 224.806 110.627 130.632 110.627 130.632Z" fill="white"/>
</mask>
<g mask="url(#mask2_211_31)">
<path d="M211.268 297.533C211.268 297.533 205.963 240.346 232.645 217.812L239.667 286.811L231.085 304.526L217.198 308.411C217.042 308.411 212.049 300.175 211.268 297.533Z" fill="url(#paint14_radial_211_31)"/>
</g>
<mask id="mask3_211_31" style="mask-type:luminance" maskUnits="userSpaceOnUse" x="108" y="29" width="128" height="288">
<path d="M110.627 130.632C110.627 130.632 109.066 98.7752 108.91 89.9173C108.598 81.0594 109.691 65.3639 118.741 56.1952C127.791 47.1819 138.557 32.4188 170.856 29C170.856 29 200.659 31.1756 220.475 51.067C240.292 70.9583 233.426 102.971 233.426 112.14C233.426 121.308 231.866 175.543 231.866 180.361C231.866 185.178 232.802 229.778 233.426 234.44C233.894 238.947 235.767 243.765 235.767 262.257C235.767 280.75 230.773 291.628 225.936 296.912C221.099 302.195 183.651 316.337 171.48 316.959C159.31 317.58 122.329 304.682 116.088 294.736C109.847 284.635 108.286 275.156 108.91 249.981C109.379 224.806 110.627 130.632 110.627 130.632Z" fill="white"/>
</mask>
<g mask="url(#mask3_211_31)">
<path d="M233.581 236.927C233.581 236.927 233.737 280.595 219.85 300.797H230.148L238.73 284.791L236.702 275.311L239.666 268.784L233.581 236.927Z" fill="url(#paint15_radial_211_31)"/>
</g>
<mask id="mask4_211_31" style="mask-type:luminance" maskUnits="userSpaceOnUse" x="108" y="29" width="128" height="288">
<path d="M110.627 130.632C110.627 130.632 109.066 98.7752 108.91 89.9173C108.598 81.0594 109.691 65.3639 118.741 56.1952C127.791 47.1819 138.557 32.4188 170.856 29C170.856 29 200.659 31.1756 220.475 51.067C240.292 70.9583 233.426 102.971 233.426 112.14C233.426 121.308 231.866 175.543 231.866 180.361C231.866 185.178 232.802 229.778 233.426 234.44C233.894 238.947 235.767 243.765 235.767 262.257C235.767 280.75 230.773 291.628 225.936 296.912C221.099 302.195 183.651 316.337 171.48 316.959C159.31 317.58 122.329 304.682 116.088 294.736C109.847 284.635 108.286 275.156 108.91 249.981C109.379 224.806 110.627 130.632 110.627 130.632Z" fill="white"/>
</mask>
<g mask="url(#mask4_211_31)">
<path d="M120.144 108.876C120.144 108.876 115.307 65.0531 136.216 40.8105C136.216 40.8105 126.854 39.1011 119.676 47.8036C112.498 56.5061 106.725 55.7291 106.725 71.58C106.725 87.4309 111.25 130.322 111.25 130.322L120.144 108.876Z" fill="url(#paint16_linear_211_31)"/>
</g>
<mask id="mask5_211_31" style="mask-type:luminance" maskUnits="userSpaceOnUse" x="108" y="29" width="128" height="288">
<path d="M110.627 130.632C110.627 130.632 109.066 98.7752 108.91 89.9173C108.598 81.0594 109.691 65.3639 118.741 56.1952C127.791 47.1819 138.557 32.4188 170.856 29C170.856 29 200.659 31.1756 220.475 51.067C240.292 70.9583 233.426 102.971 233.426 112.14C233.426 121.308 231.866 175.543 231.866 180.361C231.866 185.178 232.802 229.778 233.426 234.44C233.894 238.947 235.767 243.765 235.767 262.257C235.767 280.75 230.773 291.628 225.936 296.912C221.099 302.195 183.651 316.337 171.48 316.959C159.31 317.58 122.329 304.682 116.088 294.736C109.847 284.635 108.286 275.156 108.91 249.981C109.379 224.806 110.627 130.632 110.627 130.632Z" fill="white"/>
</mask>
<g mask="url(#mask5_211_31)">
<path d="M223.127 108.876C223.127 108.876 227.964 65.0531 207.056 40.8105C207.056 40.8105 216.418 39.1011 223.595 47.8036C230.773 56.5061 236.546 55.7291 236.546 71.58C236.546 87.4309 232.021 130.322 232.021 130.322L223.127 108.876Z" fill="url(#paint17_linear_211_31)"/>
</g>
<path opacity="0.79" d="M120.767 130.166C120.767 130.166 126.697 149.281 127.009 158.605C127.321 167.929 123.888 214.86 123.888 214.86C123.888 214.86 114.682 146.95 120.767 130.166Z" fill="url(#paint18_linear_211_31)"/>
<path opacity="0.79" d="M223.126 130.166C223.126 130.166 217.197 149.281 216.885 158.605C216.573 167.929 220.005 214.86 220.005 214.86C220.005 214.86 229.212 146.95 223.126 130.166Z" fill="url(#paint19_linear_211_31)"/>
<path d="M215.792 98.4642C159.619 98.3088 132.625 129.234 127.008 136.382L133.093 156.429C133.093 156.429 170.229 140.578 210.486 156.429L223.281 108.876C223.281 108.876 222.033 103.748 215.792 98.4642Z" fill="url(#paint20_linear_211_31)"/>
<path d="M134.342 158.76L136.682 204.914C136.682 204.914 176.315 215.482 206.274 204.914V158.76C206.274 158.76 178.188 144.152 134.342 158.76Z" fill="url(#paint21_linear_211_31)"/>
<path d="M120.767 232.731C120.767 232.731 131.689 252.312 130.597 284.324C130.597 284.48 118.426 256.507 120.767 232.731Z" fill="url(#paint22_linear_211_31)"/>
<path d="M221.565 232.731C221.565 232.731 210.643 252.312 211.735 284.324C211.735 284.48 223.906 256.507 221.565 232.731Z" fill="url(#paint23_linear_211_31)"/>
<path d="M115.462 122.085L112.497 123.018C111.093 120.22 107.66 116.335 100.327 119.288C89.4041 123.484 93.9291 133.274 93.9291 133.274L113.433 125.66L116.398 124.727C117.178 124.416 117.49 123.639 117.178 122.862C116.866 122.241 116.086 121.93 115.462 122.085Z" fill="url(#paint24_linear_211_31)"/>
<path opacity="0.46" d="M94.7092 131.875L112.497 125.038C112.497 125.038 109.064 117.423 100.795 120.531C92.3687 123.639 94.7092 131.875 94.7092 131.875Z" fill="url(#paint25_linear_211_31)"/>
<path d="M229.055 122.085L232.019 123.018C233.424 120.22 236.856 116.335 244.19 119.288C255.113 123.484 250.587 133.274 250.587 133.274L231.083 125.66L228.119 124.727C227.338 124.416 227.026 123.639 227.338 122.862C227.65 122.241 228.275 121.93 229.055 122.085Z" fill="url(#paint26_linear_211_31)"/>
<path opacity="0.46" d="M249.807 131.875L232.02 125.038C232.02 125.038 235.452 117.423 243.722 120.531C251.992 123.639 249.807 131.875 249.807 131.875Z" fill="url(#paint27_linear_211_31)"/>
<defs>
<linearGradient id="paint0_linear_211_31" x1="172.21" y1="19.1895" x2="172.21" y2="317.073" gradientUnits="userSpaceOnUse">
<stop offset="0.0300753" stop-color="#FF001A"/>
<stop offset="0.2739" stop-color="#E40014"/>
<stop offset="0.7962" stop-color="#9E0006"/>
<stop offset="1" stop-color="#810000"/>
</linearGradient>
<linearGradient id="paint1_linear_211_31" x1="64.0356" y1="82.5595" x2="191.273" y2="181.028" gradientUnits="userSpaceOnUse">
<stop stop-color="white"/>
<stop offset="0.1377" stop-color="#EEE5E3" stop-opacity="0.8608"/>
<stop offset="0.435" stop-color="#C2A19D" stop-opacity="0.5603"/>
<stop offset="0.8657" stop-color="#7E352D" stop-opacity="0.1248"/>
<stop offset="0.9892" stop-color="#69150C" stop-opacity="0"/>
</linearGradient>
<linearGradient id="paint2_linear_211_31" x1="170.687" y1="309.223" x2="170.687" y2="254.564" gradientUnits="userSpaceOnUse">
<stop offset="0.0193226" stop-color="#BF0811"/>
<stop offset="0.3177" stop-color="#A40C12"/>
<stop offset="0.9575" stop-color="#5E1516"/>
<stop offset="1" stop-color="#591616"/>
</linearGradient>
<linearGradient id="paint3_linear_211_31" x1="186.555" y1="276.455" x2="203.179" y2="284.042" gradientUnits="userSpaceOnUse">
<stop offset="0.0193226" stop-color="#E0E1E5"/>
<stop offset="0.2163" stop-color="#D3D3D7" stop-opacity="0.7991"/>
<stop offset="0.5863" stop-color="#AFAFB3" stop-opacity="0.4218"/>
<stop offset="1" stop-color="#818084" stop-opacity="0"/>
</linearGradient>
<linearGradient id="paint4_linear_211_31" x1="186.555" y1="276.455" x2="203.179" y2="284.042" gradientUnits="userSpaceOnUse">
<stop offset="0.0193226" stop-color="#E0E1E5"/>
<stop offset="0.2163" stop-color="#D3D3D7" stop-opacity="0.7991"/>
<stop offset="0.5863" stop-color="#AFAFB3" stop-opacity="0.4218"/>
<stop offset="1" stop-color="#818084" stop-opacity="0"/>
</linearGradient>
<linearGradient id="paint5_linear_211_31" x1="156.175" y1="276.455" x2="139.551" y2="284.042" gradientUnits="userSpaceOnUse">
<stop offset="0.0193226" stop-color="#E0E1E5"/>
<stop offset="0.2163" stop-color="#D3D3D7" stop-opacity="0.7991"/>
<stop offset="0.5863" stop-color="#AFAFB3" stop-opacity="0.4218"/>
<stop offset="1" stop-color="#818084" stop-opacity="0"/>
</linearGradient>
<linearGradient id="paint6_linear_211_31" x1="156.175" y1="276.455" x2="139.551" y2="284.042" gradientUnits="userSpaceOnUse">
<stop offset="0.0193226" stop-color="#E0E1E5"/>
<stop offset="0.2163" stop-color="#D3D3D7" stop-opacity="0.7991"/>
<stop offset="0.5863" stop-color="#AFAFB3" stop-opacity="0.4218"/>
<stop offset="1" stop-color="#818084" stop-opacity="0"/>
</linearGradient>
<linearGradient id="paint7_linear_211_31" x1="171.269" y1="280.09" x2="138.434" y2="280.09" gradientUnits="userSpaceOnUse">
<stop offset="0.0193226" stop-color="#BF0811"/>
<stop offset="0.3177" stop-color="#A40C12"/>
<stop offset="0.9575" stop-color="#5E1516"/>
<stop offset="1" stop-color="#591616"/>
</linearGradient>
<linearGradient id="paint8_linear_211_31" x1="171.461" y1="280.09" x2="204.296" y2="280.09" gradientUnits="userSpaceOnUse">
<stop offset="0.0193226" stop-color="#BF0811"/>
<stop offset="0.3177" stop-color="#A40C12"/>
<stop offset="0.9575" stop-color="#5E1516"/>
<stop offset="1" stop-color="#591616"/>
</linearGradient>
<linearGradient id="paint9_linear_211_31" x1="118.14" y1="44.027" x2="135.054" y2="78.7469" gradientUnits="userSpaceOnUse">
<stop offset="0.0300753" stop-color="#FF001A"/>
<stop offset="0.2739" stop-color="#E40014"/>
<stop offset="0.7962" stop-color="#9E0006"/>
<stop offset="1" stop-color="#810000"/>
</linearGradient>
<linearGradient id="paint10_linear_211_31" x1="224.518" y1="44.027" x2="207.604" y2="78.7469" gradientUnits="userSpaceOnUse">
<stop offset="0.0300753" stop-color="#FF001A"/>
<stop offset="0.2739" stop-color="#E40014"/>
<stop offset="0.7962" stop-color="#9E0006"/>
<stop offset="1" stop-color="#810000"/>
</linearGradient>
<linearGradient id="paint11_linear_211_31" x1="170.687" y1="288.502" x2="170.687" y2="338.352" gradientUnits="userSpaceOnUse">
<stop stop-color="white"/>
<stop offset="0.1377" stop-color="#EEE5E3" stop-opacity="0.8608"/>
<stop offset="0.435" stop-color="#C2A19D" stop-opacity="0.5603"/>
<stop offset="0.8657" stop-color="#7E352D" stop-opacity="0.1248"/>
<stop offset="0.9892" stop-color="#69150C" stop-opacity="0"/>
</linearGradient>
<radialGradient id="paint12_radial_211_31" cx="0" cy="0" r="1" gradientUnits="userSpaceOnUse" gradientTransform="translate(116.733 263.095) scale(33.7319 33.595)">
<stop offset="0.0193226" stop-color="#E5B352"/>
<stop offset="0.2751" stop-color="#D8985F" stop-opacity="0.7392"/>
<stop offset="0.823" stop-color="#B65280" stop-opacity="0.1805"/>
<stop offset="1" stop-color="#AB3A8B" stop-opacity="0"/>
</radialGradient>
<radialGradient id="paint13_radial_211_31" cx="0" cy="0" r="1" gradientUnits="userSpaceOnUse" gradientTransform="translate(113.008 268.832) scale(23.6976 23.6014)">
<stop offset="0.0193226" stop-color="#E5B352"/>
<stop offset="0.2751" stop-color="#D8985F" stop-opacity="0.7392"/>
<stop offset="0.823" stop-color="#B65280" stop-opacity="0.1805"/>
<stop offset="1" stop-color="#AB3A8B" stop-opacity="0"/>
</radialGradient>
<radialGradient id="paint14_radial_211_31" cx="0" cy="0" r="1" gradientUnits="userSpaceOnUse" gradientTransform="translate(225.257 263.095) rotate(180) scale(33.7319 33.595)">
<stop offset="0.0193226" stop-color="#E5B352"/>
<stop offset="0.2751" stop-color="#D8985F" stop-opacity="0.7392"/>
<stop offset="0.823" stop-color="#B65280" stop-opacity="0.1805"/>
<stop offset="1" stop-color="#AB3A8B" stop-opacity="0"/>
</radialGradient>
<radialGradient id="paint15_radial_211_31" cx="0" cy="0" r="1" gradientUnits="userSpaceOnUse" gradientTransform="translate(229.656 268.832) rotate(180) scale(23.6976 23.6014)">
<stop offset="0.0193226" stop-color="#E5B352"/>
<stop offset="0.2751" stop-color="#D8985F" stop-opacity="0.7392"/>
<stop offset="0.823" stop-color="#B65280" stop-opacity="0.1805"/>
<stop offset="1" stop-color="#AB3A8B" stop-opacity="0"/>
</radialGradient>
<linearGradient id="paint16_linear_211_31" x1="106.832" y1="85.6595" x2="136.265" y2="85.6595" gradientUnits="userSpaceOnUse">
<stop offset="0.0193226" stop-color="#BF0811"/>
<stop offset="0.3177" stop-color="#A40C12"/>
<stop offset="0.9575" stop-color="#5E1516"/>
<stop offset="1" stop-color="#591616"/>
</linearGradient>
<linearGradient id="paint17_linear_211_31" x1="236.464" y1="85.6595" x2="207.03" y2="85.6595" gradientUnits="userSpaceOnUse">
<stop offset="0.0193226" stop-color="#BF0811"/>
<stop offset="0.3177" stop-color="#A40C12"/>
<stop offset="0.9575" stop-color="#5E1516"/>
<stop offset="1" stop-color="#591616"/>
</linearGradient>
<linearGradient id="paint18_linear_211_31" x1="132.045" y1="172.422" x2="118.689" y2="172.422" gradientUnits="userSpaceOnUse">
<stop offset="0.0193226" stop-color="#E0E1E5"/>
<stop offset="0.2163" stop-color="#D3D3D7" stop-opacity="0.7991"/>
<stop offset="0.5863" stop-color="#AFAFB3" stop-opacity="0.4218"/>
<stop offset="1" stop-color="#818084" stop-opacity="0"/>
</linearGradient>
<linearGradient id="paint19_linear_211_31" x1="211.906" y1="172.422" x2="225.262" y2="172.422" gradientUnits="userSpaceOnUse">
<stop offset="0.0193226" stop-color="#E0E1E5"/>
<stop offset="0.2163" stop-color="#D3D3D7" stop-opacity="0.7991"/>
<stop offset="0.5863" stop-color="#AFAFB3" stop-opacity="0.4218"/>
<stop offset="1" stop-color="#818084" stop-opacity="0"/>
</linearGradient>
<linearGradient id="paint20_linear_211_31" x1="306.686" y1="127.432" x2="125.618" y2="127.432" gradientUnits="userSpaceOnUse">
<stop offset="0.0193226" stop-color="#E0E1E5"/>
<stop offset="0.2163" stop-color="#D3D3D7" stop-opacity="0.7991"/>
<stop offset="0.5863" stop-color="#AFAFB3" stop-opacity="0.4218"/>
<stop offset="1" stop-color="#818084" stop-opacity="0"/>
</linearGradient>
<linearGradient id="paint21_linear_211_31" x1="130.309" y1="129.118" x2="174.476" y2="186.063" gradientUnits="userSpaceOnUse">
<stop offset="0.0193226" stop-color="#E0E1E5"/>
<stop offset="0.2163" stop-color="#D3D3D7" stop-opacity="0.7991"/>
<stop offset="0.5863" stop-color="#AFAFB3" stop-opacity="0.4218"/>
<stop offset="1" stop-color="#818084" stop-opacity="0"/>
</linearGradient>
<linearGradient id="paint22_linear_211_31" x1="118.734" y1="221.086" x2="128.869" y2="275.36" gradientUnits="userSpaceOnUse">
<stop offset="0.0193226" stop-color="#E0E1E5"/>
<stop offset="0.2163" stop-color="#D3D3D7" stop-opacity="0.7991"/>
<stop offset="0.5863" stop-color="#AFAFB3" stop-opacity="0.4218"/>
<stop offset="1" stop-color="#818084" stop-opacity="0"/>
</linearGradient>
<linearGradient id="paint23_linear_211_31" x1="223.693" y1="221.086" x2="213.558" y2="275.36" gradientUnits="userSpaceOnUse">
<stop offset="0.0193226" stop-color="#E0E1E5"/>
<stop offset="0.2163" stop-color="#D3D3D7" stop-opacity="0.7991"/>
<stop offset="0.5863" stop-color="#AFAFB3" stop-opacity="0.4218"/>
<stop offset="1" stop-color="#818084" stop-opacity="0"/>
</linearGradient>
<linearGradient id="paint24_linear_211_31" x1="92.9929" y1="125.758" x2="117.245" y2="125.758" gradientUnits="userSpaceOnUse">
<stop offset="0.0300753" stop-color="#FF001A"/>
<stop offset="0.2739" stop-color="#E40014"/>
<stop offset="0.7962" stop-color="#9E0006"/>
<stop offset="1" stop-color="#810000"/>
</linearGradient>
<linearGradient id="paint25_linear_211_31" x1="97.9971" y1="118.551" x2="103.049" y2="127.681" gradientUnits="userSpaceOnUse">
<stop offset="0.0193226" stop-color="white"/>
<stop offset="0.1119" stop-color="#FEFDF8" stop-opacity="0.9056"/>
<stop offset="0.2495" stop-color="#FCF7E4" stop-opacity="0.7653"/>
<stop offset="0.4151" stop-color="#F9EDC3" stop-opacity="0.5965"/>
<stop offset="0.6024" stop-color="#F5E095" stop-opacity="0.4054"/>
<stop offset="0.8052" stop-color="#EFCE5B" stop-opacity="0.1986"/>
<stop offset="1" stop-color="#E9BC1C" stop-opacity="0"/>
</linearGradient>
<linearGradient id="paint26_linear_211_31" x1="227.173" y1="125.758" x2="251.425" y2="125.758" gradientUnits="userSpaceOnUse">
<stop offset="0.0300753" stop-color="#FF001A"/>
<stop offset="0.2739" stop-color="#E40014"/>
<stop offset="0.7962" stop-color="#9E0006"/>
<stop offset="1" stop-color="#810000"/>
</linearGradient>
<linearGradient id="paint27_linear_211_31" x1="244.5" y1="118.143" x2="240.715" y2="129.038" gradientUnits="userSpaceOnUse">
<stop offset="0.0193226" stop-color="white"/>
<stop offset="0.1119" stop-color="#FEFDF8" stop-opacity="0.9056"/>
<stop offset="0.2495" stop-color="#FCF7E4" stop-opacity="0.7653"/>
<stop offset="0.4151" stop-color="#F9EDC3" stop-opacity="0.5965"/>
<stop offset="0.6024" stop-color="#F5E095" stop-opacity="0.4054"/>
<stop offset="0.8052" stop-color="#EFCE5B" stop-opacity="0.1986"/>
<stop offset="1" stop-color="#E9BC1C" stop-opacity="0"/>
</linearGradient>
</defs>
</svg>
