<svg width="19" height="23" viewBox="0 0 19 23" fill="none" xmlns="http://www.w3.org/2000/svg">
<path d="M18.2194 7.8407C18.0853 7.9442 15.718 9.2713 15.718 12.2222C15.718 15.6354 18.7303 16.8429 18.8205 16.8728C18.8066 16.9464 18.3419 18.5265 17.2323 20.1365C16.2428 21.5533 15.2094 22.9678 13.6374 22.9678C12.0654 22.9678 11.6608 22.0593 9.84602 22.0593C8.07749 22.0593 7.44867 22.9977 6.01072 22.9977C4.57277 22.9977 3.56944 21.6867 2.41585 20.0767C1.07962 18.1861 0 15.249 0 12.4614C0 7.9902 2.92214 5.6189 5.79803 5.6189C7.32615 5.6189 8.59996 6.6171 9.55936 6.6171C10.4725 6.6171 11.8966 5.5591 13.6351 5.5591C14.294 5.5591 16.6613 5.6189 18.2194 7.8407ZM12.8098 3.6662C13.5287 2.8175 14.0373 1.6399 14.0373 0.4623C14.0373 0.299 14.0235 0.1334 13.9934 0C12.8236 0.0437 11.4319 0.7751 10.5927 1.7434C9.93387 2.4886 9.31893 3.6662 9.31893 4.8599C9.31893 5.0393 9.34898 5.2187 9.36285 5.2762C9.43683 5.29 9.55705 5.3061 9.67726 5.3061C10.7268 5.3061 12.0469 4.6069 12.8098 3.6662Z" fill="black"/>
</svg>
